<?xml version="1.0" encoding="UTF-8"?>
<svg id="Layer_1" data-name="Layer 1" xmlns="http://www.w3.org/2000/svg" viewBox="0 0 366.23 299.68">
  <defs>
    <style>
      .cls-1 {
        fill: #174a7c;
      }
    </style>
  </defs>
  <g>
    <path class="cls-1" d="M146.77,120.61c0,25.05,7.86,43.91,17.89,43.91,9.43,0,15.61-18.54,15.61-43.58,0-26.35-5.86-42.61-15.94-42.61-10.08,0-17.57,18.86-17.57,42.29M242.67,142.4c-.35-7.24-.53-62.29-.57-67.61-.05-6.55-5.49-5.86-9.12-2.95-4.11,3.29-16.34,12.34-16.34,32.8,0,9.26,0,18.52-.01,27.78-.01,8.67.03,17.34,0,26-.01,6.08,1.12,14.2-3.76,17.87-1.54,1.16-3.48,1.83-5.91,1.75-3.97-.13-4.38-1.25-4.39-5.53,0-9.29-.09-18.59-.15-27.88-.11-17.89.13-35.78-.03-53.66-.04-3.98.91-6.99-3.81-6.45-2.77.32-5.63.38-8.18.94-3.47.76-2.03,2.71-1.43,5.82,2.13,10.93,4.44,27.33,3.33,42.98-1.64,23.08-11.55,44.56-26.51,44.56-12.93,0-20.46-11.63-23.9-18.5-2.3-4.58-3.66-10.9-4.78-16.12-1.37-6.35-1.96-12.86-2.1-19.35-.29-13.08,1.25-24.06,4.92-36.47,2.38-8.06,6.45-15.83,13.04-21.26,5.69-4.69,13.48-6,20.31-1.83,4.08,2.49,10.22,7.8,17.19,8.92,2.75.44,5.12-.41,7.08-1.18,3.86-1.52,6.75-5.8,9.64-9.75,2.85-3.9,8.42-5.31,8.98.53.15,1.61-.05,7.13,1.83,7.05,1.41-.06,14.63-18.9,28.15-17.71,5.35.47,7.72,5.01,8.42,8.87,1.18,6.47,1.18,15.98,1.36,22.5.13,4.4-1.95,65.34,1.87,65.95,12.64,2.01,30.7-105.19,35.05-107.89,4.32-2.68,4.9,3.92,5.77,6.73,1.08,3.48,18.52,78.5,18.94,84.67.48,6.99.46,13.89-.94,20.36-.38,1.74-1.37,4.14-1.82,5.6-1.14,3.7.06,4.03,3.52,2.73,14.82-5.56,20.03-18.75,22-21.96,3.24-5.3,9.53-5.19,11.14.04,1.42,4.59-2.52,10.36-4.65,13.78-5.25,8.43-14.68,15.44-22.48,19.43-2.09,1.07-4.58,2.29-7.5,3.06-4.36,1.15-9.15,2.2-14.09,1.79-8.44-.7-15.27-1.88-20.6-7.86-3.83-4.29-6.38-14.99,1.65-17.62,5.4-1.77,8.56.58,10.32,4.27.66,1.38.79,2.61,2.43,2.5,2.5-.17,4.2-3.78,4.96-5.72,2.11-5.38,2.8-13.02,2.61-18.74-.21-6.2-5.17-43.29-8.29-43.91-8.54-1.71-13.82,46.84-25.8,68.9-2.14,3.95-5.58,8.97-8.9,12.88-1.35,1.59-3.94,3.84-5.72,3.98-9.93.76-12.4-27.87-12.75-35.1M126.64,63.05c.36,3.75.09,122.59.06,150.16-.02,13.44-.02,26.88,0,40.32,0,6.26-.06,12.54.02,18.8.07,5.06.81,10.11-.84,14.77-1.37,3.87-3.48,6.26-6.43,9.09-1.21,1.16-2.7,3.22-4.53,3.46-2.45.33-3.16-2.2-3.63-4.54-.98-4.87-.05-10.86-.06-15.82-.01-6.98.01-51.22.02-66.36,0-7.52.79-41.54-.58-42.55-1.37-1.01-8.68,8.25-16.26,7.73-12.32-.85-17.3-14.88-17.3-25.42,0-22.97-.15-103.64-.15-111.69,0-3.18,7.41-1.37,9.52-.01,3.4,2.19,5.84,5.61,5.84,9.83,0,23.6-.29,96.76,0,101.11.16,2.37,1.14,7.16,3.4,8.04,5.85,2.28,14.64-7.81,15.29-14.64,2-21.03.2-78.98.23-83.52.01-2.78-.65-7.68,2.41-7.68,6.31,0,12.49,3.37,13.02,8.92M47.31,189.82c-15.63,0-34.69,12.32-44.21,2.8-4.56-4.56-4.48-15.31,2.79-18.38,3.19-1.35,7.42-1.47,10.84-1.17,3.41.3,7.4-.84,10.14-2.56,4.27-2.68,7.37-6.59,9.71-10.7,7.73-13.63,5.98-33.16,6.21-42.99.52-22.66-.97-110.77,0-114.93.38-1.63.35-2.12,2.23-1.77,1.41.26,3.84,1.79,5.1,2.56,6.44,3.92,8.78,8.15,8.71,15.49-.11,11.56,0,23.13-.03,34.69-.06,25.99.09,59.98-.26,85.97-.24,17.26-10.98,34.4-13.66,37.08,32.2,1.22,58.55,14.15,60.5,19.52,1.26,3.48,1.37,13.25-2.2,12.44-5.37-1.22-26.84-18.05-55.87-18.05"/>
    <path class="cls-1" d="M312.55,31.75c.27-.04.61-.08,1.11-.08,1.73,0,2.34.84,2.34,1.69,0,1.19-1.07,1.65-2.34,1.65h-1.11v-3.26ZM312.55,36.2h1.07c1.23,0,1.84.46,2.07,1.69.19,1.27.42,2.15.65,2.46h1.61c-.15-.31-.38-.88-.61-2.38-.19-1.42-.77-2.19-1.61-2.34v-.08c1.04-.31,1.88-1.07,1.88-2.34,0-.92-.31-1.57-.88-2-.58-.42-1.54-.73-2.99-.73-1.15,0-1.92.12-2.72.23v9.63h1.53v-4.14ZM314.2,28.03c3.84,0,6.91,3.26,6.91,7.33s-3.07,7.33-6.91,7.29c-3.83,0-6.94-3.22-6.94-7.33s3.11-7.29,6.9-7.29h.04ZM314.16,26.69c-4.72,0-8.55,3.84-8.55,8.63s3.84,8.67,8.55,8.67,8.51-3.8,8.51-8.67-3.76-8.63-8.48-8.63h-.04Z"/>
  </g>
  <g>
    <path class="cls-1" d="M149.75,198.05c1.94-.41,5-.71,8.12-.71,4.44,0,7.3.77,9.44,2.5,1.79,1.33,2.86,3.37,2.86,6.07,0,3.32-2.19,6.23-5.82,7.55v.1c3.27.82,7.09,3.52,7.09,8.63,0,2.96-1.17,5.21-2.91,6.89-2.4,2.19-6.28,3.22-11.89,3.22-3.06,0-5.41-.2-6.89-.41v-33.84ZM154.19,212.14h4.03c4.7,0,7.45-2.45,7.45-5.77,0-4.03-3.06-5.62-7.55-5.62-2.04,0-3.22.15-3.93.31v11.08ZM154.19,228.63c.87.15,2.14.21,3.73.21,4.59,0,8.83-1.68,8.83-6.69,0-4.7-4.03-6.64-8.88-6.64h-3.67v13.12Z"/>
    <path class="cls-1" d="M190.94,232l-.36-3.11h-.15c-1.38,1.94-4.03,3.67-7.55,3.67-5,0-7.55-3.52-7.55-7.09,0-5.97,5.31-9.24,14.85-9.19v-.51c0-2.04-.56-5.72-5.61-5.72-2.3,0-4.7.71-6.43,1.84l-1.02-2.96c2.04-1.33,5-2.19,8.12-2.19,7.55,0,9.39,5.15,9.39,10.11v9.24c0,2.14.1,4.24.41,5.92h-4.08ZM190.28,219.39c-4.9-.1-10.46.77-10.46,5.56,0,2.91,1.94,4.29,4.24,4.29,3.22,0,5.26-2.04,5.97-4.13.15-.46.25-.97.25-1.43v-4.29Z"/>
    <path class="cls-1" d="M207.07,200.2v7.09h6.43v3.42h-6.43v13.32c0,3.06.87,4.8,3.37,4.8,1.17,0,2.04-.15,2.6-.31l.2,3.37c-.87.36-2.25.61-3.98.61-2.09,0-3.78-.66-4.85-1.89-1.28-1.33-1.74-3.52-1.74-6.43v-13.47h-3.83v-3.42h3.83v-5.92l4.39-1.17Z"/>
    <path class="cls-1" d="M218.55,195.76h4.49v15.42h.1c.71-1.28,1.84-2.4,3.22-3.17,1.33-.77,2.91-1.28,4.59-1.28,3.32,0,8.63,2.04,8.63,10.57v14.7h-4.49v-14.19c0-3.98-1.48-7.35-5.72-7.35-2.91,0-5.21,2.04-6.02,4.49-.25.61-.31,1.28-.31,2.14v14.9h-4.49v-36.24Z"/>
    <path class="cls-1" d="M252.09,200.2v7.09h6.43v3.42h-6.43v13.32c0,3.06.87,4.8,3.37,4.8,1.17,0,2.04-.15,2.6-.31l.2,3.37c-.87.36-2.25.61-3.98.61-2.09,0-3.78-.66-4.85-1.89-1.28-1.33-1.74-3.52-1.74-6.43v-13.47h-3.83v-3.42h3.83v-5.92l4.39-1.17Z"/>
    <path class="cls-1" d="M284.25,225.26c0,2.55.05,4.8.2,6.74h-3.98l-.25-4.03h-.1c-1.17,1.99-3.78,4.59-8.17,4.59-3.88,0-8.52-2.14-8.52-10.82v-14.45h4.49v13.68c0,4.7,1.43,7.86,5.51,7.86,3.01,0,5.1-2.09,5.92-4.08.26-.66.41-1.48.41-2.3v-15.16h4.49v17.97Z"/>
    <path class="cls-1" d="M291.5,232c.1-1.68.2-4.19.2-6.38v-29.86h4.44v15.52h.1c1.58-2.76,4.44-4.54,8.42-4.54,6.12,0,10.46,5.1,10.41,12.61,0,8.83-5.56,13.22-11.08,13.22-3.57,0-6.43-1.38-8.27-4.64h-.15l-.2,4.08h-3.88ZM296.14,222.09c0,.56.1,1.12.21,1.63.87,3.11,3.47,5.26,6.74,5.26,4.7,0,7.5-3.83,7.5-9.49,0-4.95-2.55-9.19-7.35-9.19-3.06,0-5.92,2.09-6.84,5.51-.1.51-.26,1.12-.26,1.84v4.44Z"/>
    <path class="cls-1" d="M320.13,227.4c1.33.87,3.67,1.79,5.92,1.79,3.27,0,4.8-1.63,4.8-3.67,0-2.14-1.28-3.32-4.59-4.54-4.44-1.58-6.53-4.03-6.53-6.99,0-3.98,3.22-7.25,8.52-7.25,2.5,0,4.7.71,6.07,1.53l-1.12,3.27c-.97-.61-2.76-1.43-5.05-1.43-2.65,0-4.13,1.53-4.13,3.37,0,2.04,1.48,2.96,4.7,4.18,4.29,1.63,6.48,3.78,6.48,7.45,0,4.34-3.37,7.4-9.24,7.4-2.71,0-5.21-.66-6.94-1.68l1.12-3.42Z"/>
    <path class="cls-1" d="M171.29,293.25c-.97-.97-1.89-1.94-3.22-3.37-2.96,2.76-6.28,3.93-10.06,3.93-6.69,0-10.57-4.49-10.57-9.65,0-4.7,2.81-7.91,6.74-10.06v-.15c-1.79-2.25-2.86-4.75-2.86-7.2,0-4.19,3.01-8.47,8.73-8.47,4.29,0,7.6,2.86,7.6,7.3,0,3.62-2.09,6.48-7.55,9.19v.15c2.91,3.37,6.18,7.15,8.37,9.6,1.58-2.4,2.65-5.72,3.32-10.06h4.08c-.92,5.41-2.4,9.7-4.95,12.71,1.84,1.94,3.62,3.88,5.67,6.07h-5.31ZM165.88,287.33c-2.04-2.25-5.87-6.43-9.7-10.82-1.84,1.17-4.44,3.37-4.44,6.99,0,3.93,2.91,6.94,7.04,6.94,2.96,0,5.46-1.33,7.09-3.11ZM155.41,266.35c0,2.45,1.12,4.34,2.6,6.18,3.47-1.99,5.72-3.83,5.72-6.74,0-2.09-1.17-4.44-3.98-4.44s-4.34,2.35-4.34,5Z"/>
    <path class="cls-1" d="M190.84,287.84c1.99,1.22,4.9,2.25,7.96,2.25,4.54,0,7.2-2.4,7.2-5.87,0-3.22-1.84-5.05-6.48-6.84-5.61-1.99-9.08-4.9-9.08-9.75,0-5.36,4.44-9.34,11.13-9.34,3.52,0,6.07.82,7.6,1.68l-1.22,3.62c-1.12-.61-3.42-1.63-6.53-1.63-4.7,0-6.48,2.81-6.48,5.16,0,3.22,2.09,4.8,6.84,6.64,5.82,2.25,8.78,5.05,8.78,10.11,0,5.31-3.93,9.9-12.05,9.9-3.32,0-6.94-.97-8.78-2.2l1.12-3.73Z"/>
    <path class="cls-1" d="M216.46,257.01h4.49v15.42h.1c.71-1.28,1.84-2.4,3.22-3.17,1.33-.77,2.91-1.28,4.59-1.28,3.32,0,8.63,2.04,8.63,10.57v14.7h-4.49v-14.19c0-3.98-1.48-7.35-5.72-7.35-2.91,0-5.21,2.04-6.02,4.49-.25.61-.31,1.28-.31,2.14v14.9h-4.49v-36.24Z"/>
    <path class="cls-1" d="M267.15,280.69c0,9.14-6.33,13.12-12.3,13.12-6.69,0-11.84-4.9-11.84-12.71,0-8.27,5.41-13.12,12.25-13.12s11.89,5.15,11.89,12.71ZM247.55,280.95c0,5.41,3.11,9.49,7.5,9.49s7.5-4.03,7.5-9.6c0-4.18-2.09-9.49-7.4-9.49s-7.6,4.9-7.6,9.6Z"/>
    <path class="cls-1" d="M274.25,268.55l3.27,12.56c.71,2.76,1.38,5.31,1.84,7.86h.15c.56-2.5,1.38-5.16,2.19-7.81l4.03-12.61h3.78l3.83,12.35c.92,2.96,1.63,5.56,2.19,8.06h.15c.41-2.5,1.07-5.1,1.89-8.01l3.52-12.4h4.44l-7.96,24.7h-4.08l-3.78-11.79c-.87-2.76-1.58-5.21-2.19-8.12h-.1c-.61,2.96-1.38,5.51-2.25,8.17l-3.98,11.74h-4.08l-7.45-24.7h4.59Z"/>
    <path class="cls-1" d="M312.02,281.71c.1,6.07,3.98,8.58,8.47,8.58,3.21,0,5.15-.56,6.84-1.28l.77,3.22c-1.58.71-4.29,1.53-8.22,1.53-7.6,0-12.15-5-12.15-12.45s4.39-13.32,11.59-13.32c8.06,0,10.21,7.09,10.21,11.64,0,.92-.1,1.63-.15,2.09h-17.35ZM325.19,278.5c.05-2.86-1.17-7.3-6.23-7.3-4.54,0-6.53,4.19-6.89,7.3h13.12Z"/>
    <path class="cls-1" d="M335.09,276.25c0-2.91-.05-5.41-.2-7.71h3.93l.15,4.85h.2c1.12-3.32,3.83-5.41,6.84-5.41.51,0,.87.05,1.28.15v4.24c-.46-.1-.92-.15-1.53-.15-3.17,0-5.41,2.4-6.02,5.77-.1.61-.21,1.33-.21,2.09v13.17h-4.44v-17Z"/>
    <path class="cls-1" d="M351.17,288.66c1.33.87,3.67,1.79,5.92,1.79,3.27,0,4.8-1.63,4.8-3.67,0-2.14-1.28-3.32-4.59-4.54-4.44-1.58-6.53-4.03-6.53-6.99,0-3.98,3.22-7.25,8.52-7.25,2.5,0,4.7.71,6.07,1.53l-1.12,3.27c-.97-.61-2.76-1.43-5.05-1.43-2.65,0-4.13,1.53-4.13,3.37,0,2.04,1.48,2.96,4.7,4.18,4.29,1.63,6.48,3.78,6.48,7.45,0,4.34-3.37,7.4-9.24,7.4-2.71,0-5.21-.66-6.94-1.68l1.12-3.42Z"/>
  </g>
</svg>